# xmcd
#
# Track frame offsets:
#	150
#	16446
#	26258
#	42404
#	56203
#	69401
#	82540
#	94764
#	106538
#	123038
#	144412
#	157371
#	173791
#	191025
#	206029
#	217792
#	232684
#	246919
#	258405
#	271805
#
# Disc length: 3766 seconds
# Revision: 0
# Processed by: cddbd v1.5.2PL0 Copyright (c) Steve Scherf et al.
# Submitted via: dBpowerAMP V12.0
#
DISCID=050eb414
DTITLE=Merle Haggard - That's the Way Love Goes/It's All in the Game
DYEAR=2011
DGENRE=Country
TTITLE0=What am I Gonna Do (With the Rest of My Life)
TTITLE1=(I'm Gonna Paint Me) A Bed of Roses
TTITLE2=Someday When Things are Good
TTITLE3=That's the Way Love Goes
TTITLE4=Carryin' Fire
TTITLE5=Don't Seem Like We've Been Together All Our Lives
TTITLE6=If You Hated Me
TTITLE7=Love Will Find You
TTITLE8=The Last Boat of the Day
TTITLE9=I Think I'll Stay
TTITLE10=Let's Chase Each Other Around the Room
TTITLE11=A Place to Fall Apart [with Janie Fricke]
TTITLE12=It's All in the Game
TTITLE13=Little Hotel Room
TTITLE14=I Never Go Home Anymore
TTITLE15=All I Want to Do is Sing My Song
TTITLE16=Natural High [with Janie Fricke]
TTITLE17=Thank Heaven for Little Girls
TTITLE18=To All the Girls I've Loved Before
TTITLE19=You Nearly Lose Your Mind
EXTD=
EXTT0=
EXTT1=
EXTT2=
EXTT3=
EXTT4=
EXTT5=
EXTT6=
EXTT7=
EXTT8=
EXTT9=
EXTT10=
EXTT11=
EXTT12=
EXTT13=
EXTT14=
EXTT15=
EXTT16=
EXTT17=
EXTT18=
EXTT19=
PLAYORDER=
